<svg id="Capa_1" enable-background="new 0 0 512 512" height="512" viewBox="0 0 512 512" width="512" xmlns="http://www.w3.org/2000/svg" xmlns:xlink="http://www.w3.org/1999/xlink"><linearGradient id="SVGID_1_" gradientUnits="userSpaceOnUse" x1="256" x2="256" y1="512" y2="0"><stop offset="0" stop-color="#addcff"/><stop offset=".5028" stop-color="#eaf6ff"/><stop offset="1" stop-color="#eaf6ff"/></linearGradient><linearGradient id="SVGID_2_" gradientUnits="userSpaceOnUse" x1="256" x2="256" y1="407" y2="105"><stop offset="0" stop-color="#00c0ff"/><stop offset="1" stop-color="#5558ff"/></linearGradient><g><g><circle cx="256" cy="256" fill="url(#SVGID_1_)" r="256"/></g><g><g><path d="m256 122.765c-63.899 0-115.7 51.698-115.7 115.471s51.801 115.47 115.7 115.47 115.7-51.698 115.7-115.471-51.801-115.47-115.7-115.47zm-53.4 53.294c4.915 0 8.9 3.976 8.9 8.883 0 4.905-3.985 8.882-8.9 8.882-4.916 0-8.9-3.977-8.9-8.882 0-4.907 3.984-8.883 8.9-8.883zm53.4 142.117c-34.348 0-62.3-27.896-62.3-62.176s27.952-62.177 62.3-62.177 62.3 27.897 62.3 62.177-27.952 62.176-62.3 62.176zm53.4-124.353c-4.916 0-8.9-3.977-8.9-8.882 0-4.907 3.984-8.883 8.9-8.883 4.915 0 8.9 3.976 8.9 8.883 0 4.906-3.985 8.882-8.9 8.882zm-53.4 17.765c-24.544 0-44.5 19.916-44.5 44.412s19.956 44.412 44.5 44.412 44.5-19.916 44.5-44.412-19.956-44.412-44.5-44.412zm24.093 32.928-15.193 15.162v14.087c0 4.91-3.98 8.882-8.9 8.882s-8.9-3.973-8.9-8.882v-14.087l-15.193-15.162c-3.477-3.47-3.477-9.091 0-12.561s9.109-3.47 12.585 0l11.508 11.485 11.507-11.485c3.477-3.47 9.109-3.47 12.585 0s3.477 9.091.001 12.561zm-73.794-129.841c-8.806-6.108-19.346-9.675-30.399-9.675-29.446 0-53.4 23.906-53.4 53.294 0 11.032 3.574 21.55 9.694 30.339 13.565-33.605 40.434-60.42 74.105-73.958zm129.801-9.675c-11.053 0-21.593 3.567-30.399 9.675 33.672 13.538 60.54 40.354 74.105 73.958 6.12-8.79 9.694-19.308 9.694-30.339 0-29.388-23.954-53.294-53.4-53.294zm-188.924 210.141c-4.276 5.862-6.876 13.013-6.876 20.801v35.529c0 19.586 15.975 35.529 35.6 35.529 6.901 0 13.802-2.03 19.486-5.725l23.048-15.106c-4.13-6.533-6.597-14.178-6.816-22.409-26.166-9.268-48.629-26.399-64.442-48.619zm153.206 48.619c-.219 8.232-2.687 15.877-6.818 22.411l23.068 15.122c5.666 3.677 12.567 5.707 19.468 5.707 19.625 0 35.6-15.943 35.6-35.529v-35.529c0-7.778-2.593-14.92-6.893-20.778-15.812 22.21-38.266 39.33-64.425 48.596zm-70.239 5.154c2.863 11.634 13.328 20.321 25.857 20.321s22.994-8.688 25.857-20.321c-8.372 1.647-17.008 2.557-25.857 2.557s-17.485-.91-25.857-2.557z" fill="url(#SVGID_2_)"/></g></g></g></svg>