<svg id="Capa_1" enable-background="new 0 0 512 512" height="512" viewBox="0 0 512 512" width="512" xmlns="http://www.w3.org/2000/svg" xmlns:xlink="http://www.w3.org/1999/xlink"><linearGradient id="lg1"><stop offset=".0056" stop-color="#0056e0"/><stop offset="1" stop-color="#00e5b8"/></linearGradient><linearGradient id="SVGID_1_" gradientUnits="userSpaceOnUse" x1="74.98" x2="437.019" xlink:href="#lg1" y1="437.019" y2="74.98"/><radialGradient id="SVGID_2_" cx="253.971" cy="300.619" gradientUnits="userSpaceOnUse" r="304.662"><stop offset="0" stop-color="#0072ff"/><stop offset=".5799" stop-color="#00b7d4" stop-opacity=".42"/><stop offset="1" stop-color="#00e5b8" stop-opacity="0"/></radialGradient><linearGradient id="lg2"><stop offset="0" stop-color="#00e5b8"/><stop offset=".5" stop-color="#85ffe0"/><stop offset=".7781" stop-color="#cbfff2"/><stop offset="1" stop-color="#fff"/></linearGradient><linearGradient id="SVGID_3_" gradientUnits="userSpaceOnUse" x1="47.179" x2="289.914" xlink:href="#lg2" y1="280.193" y2="37.459"/><linearGradient id="SVGID_4_" gradientUnits="userSpaceOnUse" x1="234.936" x2="327.388" y1="135.316" y2="42.864"><stop offset="0" stop-color="#00e5b8"/><stop offset=".4662" stop-color="#85ffe0"/><stop offset=".7631" stop-color="#cbfff2"/><stop offset="1" stop-color="#fff"/></linearGradient><linearGradient id="SVGID_5_" gradientUnits="userSpaceOnUse" x1="153.089" x2="281.477" xlink:href="#lg2" y1="139.271" y2="10.883"/><linearGradient id="SVGID_6_" gradientUnits="userSpaceOnUse" x1="78.275" x2="325.669" xlink:href="#lg2" y1="338.473" y2="91.079"/><linearGradient id="SVGID_7_" gradientUnits="userSpaceOnUse" x1="87.792" x2="321.184" xlink:href="#lg2" y1="259.156" y2="25.764"/><linearGradient id="SVGID_8_" gradientUnits="userSpaceOnUse" x1="102.018" x2="437.348" xlink:href="#lg1" y1="462.481" y2="127.151"/><radialGradient id="SVGID_9_" cx="256" cy="309.433" gradientUnits="userSpaceOnUse" r="147.254"><stop offset="0" stop-color="#00b8ae" stop-opacity="0"/><stop offset=".3455" stop-color="#00b6b0" stop-opacity=".346"/><stop offset=".5392" stop-color="#00afb8" stop-opacity=".539"/><stop offset=".6953" stop-color="#00a3c6" stop-opacity=".695"/><stop offset=".8314" stop-color="#0092da" stop-opacity=".831"/><stop offset=".9533" stop-color="#007cf3" stop-opacity=".953"/><stop offset="1" stop-color="#0072ff"/></radialGradient><linearGradient id="lg3"><stop offset="0" stop-color="#3ca1ff"/><stop offset=".5" stop-color="#85ffe0"/><stop offset=".7168" stop-color="#9dffe6"/><stop offset="1" stop-color="#c2fff0"/></linearGradient><linearGradient id="SVGID_10_" gradientUnits="userSpaceOnUse" x1="69.019" x2="824.121" xlink:href="#lg3" y1="495.374" y2="-259.728"/><linearGradient id="SVGID_11_" gradientUnits="userSpaceOnUse" x1="24.366" x2="737.802" xlink:href="#lg3" y1="518.279" y2="-195.157"/><g><circle cx="256" cy="256" fill="url(#SVGID_1_)" r="256"/><circle cx="256" cy="256" fill="url(#SVGID_2_)" r="256"/><path d="m295.083 109.485c-.145-25.591-.328-51.183-.549-76.774-25.69-.392-51.379-.392-77.069 0-.221 25.591-.404 51.183-.549 76.774 26.056-.256 52.112-.256 78.167 0z" fill="url(#SVGID_3_)"/><path d="m333.781 79.476c-13.174-15.605-26.27-31.214-39.247-46.764-12.712 15.158-25.57 30.456-38.534 45.831 12.963 10.25 25.997 20.578 39.083 30.943 12.97-10.109 25.875-20.125 38.698-30.01z" fill="url(#SVGID_4_)"/><path d="m217.465 32.712c-12.977 15.551-26.073 31.159-39.247 46.764 12.823 9.885 25.729 19.902 38.698 30.01 13.085-10.365 26.119-20.693 39.083-30.943-12.963-15.375-25.821-30.673-38.534-45.831z" fill="url(#SVGID_5_)"/><path d="m256 78.543c.137-.025-36.704 101.755-36.784 101.746 33.095-.156 66.19-.102 99.285.164-.096-20.685-.232-41.37-.407-62.054 5.278-13.01 10.512-25.987 15.688-38.922 0-.277-77.782-1.209-77.782-.934z" fill="url(#SVGID_6_)"/><path d="m255.999 78.543c-25.927 0-51.854.311-77.781.933-.048-.035 15.644 38.891 15.688 38.922-.175 20.685-.311 41.369-.407 62.054 20.834-.167 41.667-.251 62.501-.251-.001.001 0-101.658-.001-101.658z" fill="url(#SVGID_7_)"/><path d="m256 448.833c-75.176-.246-138.39-65.1-139.206-140.275-.513-75.206 62.701-138.249 139.206-138.526 76.505.276 139.719 63.32 139.206 138.525-.815 75.176-64.031 140.03-139.206 140.276z" fill="url(#SVGID_8_)"/><path d="m256 448.833c-75.176-.246-138.39-65.1-139.206-140.275-.513-75.206 62.701-138.249 139.206-138.526 76.505.276 139.719 63.32 139.206 138.525-.815 75.176-64.031 140.03-139.206 140.276z" fill="url(#SVGID_9_)"/><path d="m256 162.345c-80.638.324-147.445 66.975-146.883 146.114.918 79.105 67.725 147.771 146.883 148.061 79.158-.291 145.965-68.957 146.883-148.062.561-79.138-66.245-145.79-146.883-146.113zm0 263.425c-63.094-.141-115.624-53.751-116.175-116.947-.375-63.216 52.155-115.566 116.175-115.728 64.02.161 116.55 52.512 116.175 115.728-.55 63.197-53.081 116.806-116.175 116.947z" fill="url(#SVGID_10_)"/><path d="m334.696 159.253c3.917-9.574 7.813-19.129 11.681-28.661 3.136-7.723-.678-16.731-8.477-20.126-7.801-3.396-16.65.158-19.806 7.933-3.887 9.58-7.798 19.178-11.728 28.79-15.936-5.122-32.841-7.907-50.366-7.905-17.524-.001-34.43 2.783-50.366 7.905-3.93-9.612-7.841-19.21-11.728-28.79-3.155-7.776-12.006-11.329-19.806-7.933-7.799 3.396-11.612 12.404-8.477 20.126 3.868 9.532 7.764 19.087 11.681 28.661-54.09 29.279-91.841 85.324-91.217 148.877 1.265 90.68 78.956 171 169.913 171.453 90.957-.453 168.648-80.774 169.913-171.453.623-63.554-37.127-119.6-91.217-148.877zm-78.696 289.58c-75.176-.247-138.39-65.099-139.206-140.275-.513-75.205 62.701-138.25 139.206-138.526 76.505.276 139.719 63.32 139.206 138.525-.816 75.176-64.03 140.03-139.206 140.276z" fill="url(#SVGID_11_)"/></g></svg>